<?xml version="1.0" standalone="no"?>
<!DOCTYPE svg PUBLIC "-//W3C//DTD SVG 20010904//EN"
 "http://www.w3.org/TR/2001/REC-SVG-20010904/DTD/svg10.dtd">
<svg version="1.0" xmlns="http://www.w3.org/2000/svg"
 width="512.000000pt" height="512.000000pt" viewBox="0 0 512.000000 512.000000"
 preserveAspectRatio="xMidYMid meet">
<metadata>
Created by potrace 1.11, written by Peter Selinger 2001-2013
</metadata>
<g transform="translate(0.000000,512.000000) scale(0.100000,-0.100000)"
fill="#000000" stroke="none">
<path d="M710 4293 c-45 -23 -59 -37 -82 -82 l-28 -53 0 -254 c0 -140 -3 -254
-7 -255 -5 -1 -33 -2 -64 -3 -31 -1 -63 -7 -71 -14 -9 -7 -24 -10 -34 -6 -16
5 -16 4 -4 -5 10 -7 11 -11 3 -11 -7 0 -24 -13 -39 -29 -28 -32 -68 -101 -58
-101 4 0 2 -6 -3 -12 -8 -12 -8 -83 1 -158 2 -19 7 -69 10 -110 4 -41 9 -95
12 -120 5 -53 14 -153 19 -230 2 -30 6 -80 9 -110 8 -79 16 -190 31 -410 2
-30 6 -84 9 -120 4 -36 8 -101 11 -145 2 -44 6 -114 9 -155 3 -41 8 -113 11
-160 2 -47 7 -123 10 -170 9 -159 16 -305 20 -412 2 -59 6 -112 10 -118 3 -5
1 -10 -6 -10 -8 0 -8 -4 -1 -13 7 -8 7 -18 2 -27 -5 -8 -5 -21 1 -32 6 -12 6
-18 -1 -18 -5 0 -10 -5 -10 -11 0 -5 4 -8 9 -4 5 3 13 0 17 -6 4 -8 3 -9 -4
-5 -7 4 -12 3 -12 -3 0 -5 5 -13 10 -16 6 -4 8 -16 4 -27 -4 -14 -2 -18 5 -14
6 4 11 3 11 -3 0 -5 9 -13 21 -16 19 -7 20 -7 2 -21 -11 -8 -13 -13 -5 -14 6
0 12 -5 12 -12 0 -8 -7 -6 -17 5 -16 16 -16 19 -3 28 12 9 12 10 -3 5 -10 -3
-16 -2 -13 2 3 5 -1 9 -9 9 -13 0 -13 -3 -1 -22 11 -16 12 -25 4 -33 -17 -17
16 -26 42 -12 24 13 23 14 39 -17 6 -12 17 -20 25 -17 7 3 16 -1 19 -9 3 -9
17 -14 36 -12 17 1 28 -1 25 -6 -3 -5 0 -9 5 -9 6 0 11 5 11 12 0 6 3 8 7 5 3
-4 -2 -17 -13 -28 -19 -22 -19 -22 3 -10 12 6 27 19 32 29 6 9 11 11 11 5 0
-23 -2 -28 -12 -25 -5 1 -7 -2 -3 -8 3 -5 -2 -10 -11 -10 -10 0 -14 -3 -11 -7
4 -3 19 0 33 8 23 12 27 11 40 -6 8 -10 14 -13 14 -6 0 7 5 9 12 5 7 -4 8 -3
4 4 -4 7 -3 12 3 12 6 0 8 6 5 14 -3 8 -1 17 5 20 6 4 8 -6 6 -24 -2 -16 0
-30 4 -30 14 0 61 27 56 31 -2 3 6 11 18 18 18 11 20 11 10 0 -18 -18 -16 -34
2 -19 11 9 19 10 28 1 10 -8 17 -7 26 2 9 9 14 9 21 -3 8 -12 13 -13 30 -2 24
15 30 15 30 1 0 -5 -4 -7 -10 -4 -5 3 -7 0 -4 -8 3 -8 1 -18 -5 -22 -6 -3 -11
-16 -10 -28 1 -21 2 -19 15 22 4 11 9 10 25 -5 18 -16 19 -16 13 -1 -3 10 -1
17 5 17 10 0 15 -14 12 -33 -1 -5 4 -5 10 -1 9 5 10 2 6 -10 -4 -11 -3 -15 4
-11 6 4 8 13 5 21 -3 8 -1 14 4 14 11 0 8 35 -3 46 -4 4 -7 12 -7 18 0 6 9 -2
19 -18 11 -17 18 -33 15 -38 -3 -4 2 -18 10 -30 9 -12 16 -17 16 -11 0 7 -4
15 -10 18 -5 3 -10 11 -10 16 0 6 4 8 9 4 5 -3 12 -1 15 4 3 4 17 9 31 9 22 0
24 -3 13 -17 -10 -13 -10 -14 2 -3 18 16 38 16 22 0 -7 -7 -12 -16 -12 -22 0
-5 7 -1 15 10 13 16 16 17 25 4 9 -13 11 -13 19 0 8 12 13 11 33 -5 l23 -20
-19 23 c-11 12 -15 22 -10 22 15 0 30 -14 37 -32 8 -23 37 -12 37 13 0 10 5
19 10 19 6 0 10 -8 10 -18 0 -10 3 -21 6 -25 10 -9 34 4 34 19 0 21 17 17 23
-6 6 -24 37 -17 37 9 0 13 2 13 9 2 7 -11 9 -11 13 0 3 8 9 11 13 7 4 -4 2
-14 -5 -22 -6 -9 -10 -21 -7 -28 3 -8 6 -6 6 5 1 10 6 15 12 12 6 -4 8 -14 4
-24 -5 -12 -4 -13 6 -4 9 9 9 16 1 26 -7 8 -9 16 -7 19 3 3 0 17 -6 32 -11 24
-13 24 -25 8 -13 -16 -13 -16 -14 0 0 12 -5 16 -17 12 -13 -4 -15 -3 -5 4 12
8 39 9 67 1 18 -4 45 13 38 25 -5 8 -3 8 8 0 8 -6 22 -10 31 -9 10 2 15 -2 12
-9 -3 -7 2 -13 11 -13 9 0 14 6 11 12 -2 6 2 12 10 12 8 0 12 -3 9 -5 -3 -3 0
-11 5 -17 7 -9 6 -16 -5 -25 -8 -7 -15 -8 -15 -3 0 5 -7 10 -15 10 -8 0 -12
-4 -9 -9 3 -4 1 -8 -5 -8 -5 0 -13 4 -16 10 -3 5 -2 10 4 10 6 0 8 6 5 14 -3
8 -13 13 -22 11 -9 -2 -20 -4 -24 -4 -4 -1 -5 -10 -3 -21 2 -11 0 -20 -5 -20
-14 0 -4 -35 11 -36 9 -1 10 1 2 3 -9 3 -10 10 -4 21 5 9 9 21 9 27 0 5 5 11
12 13 13 5 9 -20 -5 -30 -5 -4 -6 -10 -2 -15 5 -4 12 -2 16 5 6 10 12 4 21
-18 7 -17 17 -33 22 -36 5 -4 3 7 -6 24 -14 28 -13 42 6 42 4 0 7 -3 7 -7 -3
-20 2 -30 16 -30 8 0 12 4 10 8 -3 4 4 18 15 30 11 13 19 19 20 12 0 -6 -5
-15 -10 -18 -13 -8 -13 -25 1 -25 5 0 8 4 4 9 -3 5 -1 12 4 15 5 4 13 -4 17
-16 6 -21 7 -21 21 5 15 29 26 37 17 12 -4 -8 -1 -15 6 -15 6 0 8 5 5 10 -3 6
-1 10 4 10 6 0 11 -5 11 -12 0 -6 7 -3 15 8 14 18 14 18 8 -3 -3 -13 -1 -23 6
-23 5 0 8 8 5 18 -4 13 -1 12 14 -6 22 -24 55 -21 45 5 -5 13 -3 13 15 4 12
-7 22 -16 22 -22 0 -6 5 -7 10 -4 7 4 9 -3 6 -18 -3 -18 2 -31 17 -44 22 -18
22 -18 6 2 -9 11 -15 29 -13 40 2 11 -4 25 -12 32 -9 6 -11 14 -5 17 5 4 16
-3 24 -14 14 -20 15 -20 21 -3 7 17 8 17 20 1 7 -10 16 -14 20 -11 4 4 5 -4 2
-19 -3 -16 1 -32 10 -39 7 -6 11 -16 7 -22 -4 -6 -1 -7 6 -3 9 6 9 12 -2 24
-8 10 -13 26 -11 37 2 11 -4 25 -12 32 -9 6 -11 14 -5 17 5 4 17 -4 25 -16 9
-12 16 -18 16 -12 0 5 27 10 60 10 52 0 58 -2 47 -15 -11 -14 -10 -14 7 -1 18
14 19 13 13 -2 -3 -10 -2 -20 2 -22 7 -5 8 35 1 42 -11 10 -1 30 23 45 15 9
30 17 32 17 8 0 0 -39 -10 -47 -4 -5 -5 -3 -2 4 5 7 0 10 -10 9 -10 -2 -18 -8
-17 -14 3 -34 4 -37 14 -22 9 13 11 13 21 0 9 -13 10 -12 5 3 -7 22 21 35 37
17 9 -10 9 -12 -3 -8 -11 4 -16 -1 -17 -16 0 -11 1 -15 4 -8 7 18 23 4 17 -16
-5 -14 -4 -14 4 -3 6 8 8 21 4 30 -5 14 -2 13 14 -1 16 -14 23 -15 34 -5 10
10 12 9 7 -4 -3 -9 -1 -22 4 -30 6 -9 8 -4 5 18 -2 21 2 37 12 45 13 11 14 10
8 -9 -4 -12 -2 -24 3 -28 6 -3 8 0 6 8 -4 10 4 13 30 13 25 -1 34 -5 32 -16
-1 -9 6 -15 19 -16 17 -1 21 4 19 23 -1 13 2 26 6 29 9 5 12 -7 10 -36 0 -10
1 -11 5 -2 8 18 24 4 18 -16 -5 -14 -4 -14 4 -3 6 8 8 21 4 30 -3 9 -2 13 3 9
4 -4 16 -3 25 2 13 7 24 4 41 -9 13 -10 30 -16 38 -13 8 3 11 0 7 -7 -4 -6 -2
-11 4 -11 17 0 6 25 -11 26 -31 3 -33 5 -20 13 9 6 22 6 31 1 9 -5 22 -5 30 0
7 4 19 6 27 3 16 -6 18 13 1 23 -6 4 -8 3 -5 -3 3 -5 0 -10 -8 -10 -8 0 -12 5
-9 11 3 6 -1 3 -8 -6 -13 -15 -15 -15 -26 0 -7 9 -10 11 -6 4 5 -12 2 -12 -16
-2 -18 10 -21 10 -15 -2 3 -7 0 -5 -8 5 -9 10 -18 14 -21 8 -3 -5 -3 -11 1
-14 5 -2 1 -2 -7 1 -38 11 -59 10 -53 -4 3 -8 0 -14 -7 -14 -6 0 -9 4 -6 9 3
5 -1 11 -9 15 -8 3 -17 1 -20 -5 -4 -5 -11 -6 -17 -3 -6 4 -5 10 3 16 11 8 10
9 -2 5 -9 -3 -22 0 -29 6 -10 9 -11 9 -5 -2 5 -9 4 -12 -3 -7 -7 4 -12 12 -12
17 0 11 40 5 70 -11 29 -15 38 -5 11 12 -12 7 -21 17 -21 22 0 4 6 3 13 -3 8
-6 17 -7 21 -3 4 4 7 2 6 -3 -5 -21 1 -29 9 -16 6 9 15 11 27 6 26 -11 66 -16
60 -6 -3 4 0 13 6 21 8 12 9 12 4 -2 -3 -10 -1 -18 4 -18 6 0 10 6 10 13 0 7
5 5 10 -5 6 -9 18 -15 28 -13 9 2 17 4 17 5 0 1 9 3 19 5 25 5 52 -21 30 -29
-10 -4 -13 -2 -8 6 5 7 3 8 -6 3 -9 -6 -11 -4 -5 5 5 9 4 11 -4 6 -8 -5 -7
-13 4 -28 13 -19 12 -23 -3 -35 -10 -8 -2 -7 20 4 29 13 35 19 27 30 -9 9 -8
13 0 13 7 0 10 4 7 8 -2 4 -1 14 4 22 7 12 10 12 16 -3 3 -9 10 -14 16 -11 5
3 4 13 -4 22 -7 10 -1 7 14 -6 16 -15 28 -20 33 -13 3 6 1 11 -6 11 -7 0 -9 3
-6 6 4 4 13 1 22 -6 12 -10 15 -10 15 1 0 8 6 5 14 -7 8 -10 18 -15 22 -11 5
4 2 13 -6 18 -12 9 -12 10 3 5 10 -3 21 -6 23 -6 3 0 2 -5 -1 -10 -3 -6 1 -10
9 -10 9 0 13 6 10 14 -3 8 -1 17 5 21 7 4 8 -1 4 -12 -3 -10 -3 -15 2 -11 4 4
14 3 22 -3 17 -14 17 2 1 21 -11 12 -10 12 5 0 10 -7 16 -18 13 -25 -2 -6 5
-17 16 -24 11 -7 17 -15 14 -18 -3 -3 -12 0 -21 7 -8 7 -15 8 -15 2 0 -5 8
-13 18 -17 16 -6 16 -7 -2 -21 -11 -8 -15 -14 -9 -14 7 0 21 14 33 31 26 36
39 32 15 -4 -12 -19 -13 -27 -4 -33 7 -4 9 -3 6 3 -3 5 2 22 13 37 17 28 18
28 25 7 5 -18 9 -20 21 -10 10 8 18 8 27 1 10 -8 16 -6 25 9 7 11 17 17 23 13
6 -3 4 -11 -7 -18 -18 -13 -12 -37 9 -35 9 0 9 2 0 6 -7 2 -13 10 -13 16 0 5
3 7 7 4 3 -4 12 2 20 13 8 11 19 20 25 20 7 0 6 -6 -2 -15 -9 -10 -9 -15 -1
-15 6 0 11 4 11 9 0 5 11 8 24 5 15 -2 26 2 30 11 3 8 11 15 18 15 9 0 9 -3 0
-12 -9 -9 -7 -14 5 -23 14 -10 20 -9 35 9 l18 21 19 -22 c14 -16 21 -19 30
-10 12 12 16 -3 4 -19 -5 -5 0 -1 9 9 10 11 16 23 13 27 -3 4 2 10 9 13 10 4
13 0 11 -14 -2 -10 0 -19 6 -19 8 0 13 15 10 33 -1 4 4 17 10 29 9 16 8 19 -3
15 -7 -2 -12 -10 -11 -16 3 -10 -10 -15 -29 -12 -5 0 -8 -5 -8 -12 0 -8 -4 -7
-11 3 -8 13 -9 12 -7 -4 2 -10 -2 -21 -9 -23 -7 -3 -11 3 -9 14 3 14 -2 19
-20 19 -13 0 -24 -4 -24 -9 0 -4 -5 -5 -11 -1 -8 5 -8 9 1 14 6 4 11 11 10 16
-1 5 4 10 12 12 10 3 10 2 -1 -6 -8 -6 -9 -12 -3 -16 5 -3 15 1 22 9 7 8 18
15 24 15 6 0 5 -4 -3 -9 -8 -5 -9 -11 -3 -15 6 -3 14 -2 17 4 5 8 12 7 23 -2
14 -11 15 -10 8 7 -4 11 -4 16 0 12 4 -4 13 -2 20 4 17 14 35 3 27 -16 -3 -8
0 -15 6 -15 6 0 11 7 11 15 0 8 4 15 10 15 5 0 6 -8 3 -17 -6 -15 -4 -16 9 -5
12 10 18 10 28 -2 10 -13 8 -15 -9 -11 -16 3 -22 -2 -27 -21 -5 -20 -9 -22
-20 -13 -9 7 -14 8 -14 1 0 -5 7 -13 16 -16 11 -4 18 1 21 14 7 26 19 26 26 0
6 -24 37 -17 37 9 1 13 3 13 16 -4 16 -19 16 -19 9 5 -4 14 -4 22 0 18 5 -4
15 -2 23 5 17 13 17 14 -4 -37 -5 -14 -4 -17 4 -12 7 4 12 14 12 22 0 8 5 14
11 14 7 0 8 -7 4 -17 -16 -42 -16 -46 2 -18 14 21 17 32 9 37 -14 10 -13 10
62 12 39 1 61 -2 59 -9 -2 -5 -18 -9 -36 -8 -17 1 -29 -2 -26 -6 7 -12 54 -11
61 1 3 5 11 4 19 -2 9 -8 15 -8 20 0 3 5 14 10 23 10 14 0 12 -4 -6 -18 -21
-16 -22 -20 -8 -31 22 -18 52 4 35 25 -15 18 -4 18 29 -2 18 -11 21 -11 10 -2
-12 11 -14 18 -7 25 14 14 2 36 -14 26 -7 -4 -6 0 2 10 15 18 31 14 31 -9 0
-19 9 -18 43 5 23 15 25 20 14 29 -8 7 -18 8 -22 4 -5 -4 -5 -1 -1 6 7 11 11
11 24 -1 10 -8 23 -12 31 -10 9 4 11 0 7 -14 -4 -12 -1 -25 6 -30 18 -14 59
-23 52 -12 -3 5 -12 9 -21 9 -9 0 -13 3 -9 7 4 5 13 8 19 8 17 0 45 -28 39
-39 -3 -5 0 -6 6 -2 6 3 13 2 17 -4 3 -5 11 -10 18 -10 6 0 -3 10 -20 23 -29
19 -49 48 -23 32 6 -3 7 1 4 9 -3 9 -10 16 -16 16 -5 0 -7 -4 -4 -9 3 -5 -8
-7 -24 -6 -16 1 -27 -1 -24 -6 3 -5 0 -9 -5 -9 -13 0 -14 10 -1 30 7 11 10 11
10 2 0 -7 5 -10 10 -7 6 4 8 10 5 15 -3 5 -1 12 5 15 6 4 9 1 8 -6 -2 -9 7
-13 24 -13 15 1 25 -3 22 -7 -3 -5 2 -9 11 -9 10 0 13 5 9 12 -5 7 -3 8 6 3 9
-6 12 -4 8 7 -4 8 -1 15 6 15 9 0 12 -12 9 -33 -4 -40 12 -52 37 -29 22 20 16
43 -6 24 -7 -6 -11 -15 -8 -20 3 -5 0 -9 -5 -9 -6 0 -11 7 -11 15 0 8 4 15 10
15 5 0 7 6 4 14 -3 8 -1 17 5 21 7 3 8 0 5 -10 -5 -11 -2 -14 10 -9 15 6 18 2
20 -36 1 -17 43 -23 53 -7 3 6 1 7 -5 3 -8 -5 -11 0 -9 13 4 27 17 39 17 17 0
-12 5 -16 15 -12 8 3 19 -3 25 -12 12 -17 10 -8 -6 33 -6 16 -3 16 15 -5 12
-14 20 -20 18 -15 -3 6 1 18 8 28 11 16 13 16 19 2 3 -9 2 -13 -4 -10 -16 10
-12 -5 7 -23 16 -16 16 -16 10 1 -6 15 -3 17 12 12 11 -3 22 -1 26 4 3 6 0 8
-8 5 -8 -3 -19 1 -25 9 -9 11 -8 14 3 14 8 0 12 -4 9 -9 -3 -4 5 -6 18 -4 13
3 27 5 31 5 5 1 5 6 1 13 -4 6 -3 8 3 5 13 -8 35 17 25 29 -4 4 1 2 11 -5 10
-8 16 -20 13 -27 -3 -8 0 -11 9 -7 8 3 12 9 9 14 -3 5 0 9 5 9 6 0 11 -6 11
-12 0 -7 5 -5 11 4 5 10 18 18 27 19 11 0 12 2 4 6 -7 3 -20 -1 -29 -9 -15
-11 -16 -11 -9 6 7 19 6 19 -12 3 -17 -16 -20 -16 -25 -3 -4 9 -1 18 5 22 7 5
8 2 3 -6 -5 -8 -3 -11 6 -8 8 3 13 11 11 17 -2 9 3 9 17 1 15 -7 23 -6 35 6 9
8 16 19 16 24 0 5 8 7 18 4 14 -5 15 -4 2 5 -11 8 -18 7 -28 -6 -13 -19 -39
-26 -47 -13 -3 4 2 14 11 21 18 14 37 54 39 81 1 10 8 24 14 32 7 8 8 17 3 20
-10 6 -8 48 2 65 4 5 2 12 -4 16 -6 4 -8 10 -6 13 4 7 11 117 21 322 3 58 7
141 10 185 3 44 8 121 10 170 8 139 13 222 19 315 4 47 9 119 11 160 9 130 15
213 21 275 3 33 7 87 9 120 9 132 15 211 20 240 2 17 7 80 11 140 3 61 8 113
11 118 2 4 6 46 9 94 2 47 8 91 13 97 6 7 6 18 2 25 -5 8 -6 25 -2 40 14 54
-5 156 -34 185 -8 8 -15 17 -15 20 0 9 -47 51 -61 54 -8 2 -16 8 -17 13 -2 5
-8 7 -13 3 -5 -3 -9 -1 -9 5 0 5 -9 8 -20 6 -11 -2 -20 2 -20 8 0 8 -3 8 -8 2
-4 -5 -23 -10 -42 -10 l-35 0 -6 105 c-3 58 -10 117 -16 131 -18 41 -56 77
-105 99 -43 19 -70 19 -724 20 -373 1 -698 3 -721 5 -109 10 -186 46 -332 157
-57 44 -126 90 -152 104 -106 53 -113 53 -939 54 l-766 0 -54 -27z m-185
-3503 c3 -5 -1 -10 -10 -10 -9 0 -13 5 -10 10 3 6 8 10 10 10 2 0 7 -4 10 -10z
m116 -37 c13 -16 12 -17 -3 -4 -10 7 -18 15 -18 17 0 8 8 3 21 -13z m3829 -13
c0 -5 -5 -10 -11 -10 -5 0 -7 5 -4 10 3 6 8 10 11 10 2 0 4 -4 4 -10z m-102
-25 c-3 -3 -9 2 -12 12 -6 14 -5 15 5 6 7 -7 10 -15 7 -18z m-3578 5 c9 14 9
2 0 -40 -1 -9 -30 33 -30 44 0 6 5 4 10 -4 9 -13 11 -13 20 0z m73 3 c-7 -2
-13 -9 -13 -14 0 -6 6 -7 13 -3 8 5 8 2 -2 -9 -7 -9 -19 -17 -25 -16 -7 0 -6
2 2 6 6 2 10 9 6 14 -7 12 4 29 19 28 9 0 9 -2 0 -6z m162 -3 c-3 -5 -12 -10
-18 -10 -7 0 -6 4 3 10 19 12 23 12 15 0z m125 0 c0 -5 -5 -10 -11 -10 -5 0
-7 5 -4 10 3 6 8 10 11 10 2 0 4 -4 4 -10z m139 3 c-1 -5 -1 -15 0 -23 1 -13
3 -13 12 0 9 13 10 12 5 -2 -3 -12 0 -18 10 -18 8 0 13 4 10 9 -5 8 15 8 34 1
17 -7 37 -4 52 8 12 10 18 10 23 2 6 -9 9 -9 15 0 5 8 9 7 13 -5 4 -9 3 -14
-2 -11 -5 3 -11 0 -14 -7 -3 -10 3 -12 23 -9 34 5 44 -9 24 -34 -15 -18 -15
-18 -11 2 6 28 -26 27 -48 -1 -16 -20 -16 -19 -11 6 5 23 2 25 -24 25 -24 0
-29 -3 -25 -17 3 -10 1 -20 -5 -24 -5 -3 -10 1 -10 9 0 23 -36 39 -59 26 -21
-11 -71 5 -71 23 0 5 -6 5 -13 -2 -14 -11 -27 -5 -27 12 0 5 7 6 16 3 12 -5
15 -2 10 11 -6 17 -5 17 7 1 15 -19 60 -21 53 -2 -3 7 -2 15 1 18 8 8 13 8 12
-1z m56 -3 c3 -5 1 -10 -4 -10 -6 0 -11 5 -11 10 0 6 2 10 4 10 3 0 8 -4 11
-10z m60 1 c3 -5 2 -12 -3 -15 -5 -3 -9 1 -9 9 0 17 3 19 12 6z m164 -14 c0
-9 -2 -8 -6 1 -2 6 -10 9 -15 6 -7 -4 -8 -2 -4 5 9 13 26 5 25 -12z m2290 -14
c15 1 20 6 16 17 -3 10 -1 10 9 -3 9 -11 16 -14 19 -7 3 6 4 5 3 -2 -2 -7 -13
-12 -25 -12 -39 2 -6 -15 37 -18 6 -1 12 -4 12 -8 0 -17 -15 -18 -44 -3 -37
20 -58 25 -50 12 3 -5 10 -7 15 -4 5 4 9 2 9 -4 0 -20 -19 -21 -30 -2 -6 11
-16 19 -23 17 -6 -1 -9 -1 -4 1 4 3 4 10 1 15 -4 7 -2 8 4 4 13 -8 16 5 5 20
-5 5 -1 2 8 -8 9 -9 26 -16 38 -15z m-2746 -36 c-3 -5 -10 -2 -15 7 -6 11 -16
15 -29 11 -21 -7 -24 2 -9 25 6 10 10 11 10 3 0 -7 4 -13 10 -13 5 0 7 8 4 18
-4 9 3 4 14 -12 12 -17 18 -34 15 -39z m1014 48 c0 -8 -4 -15 -9 -15 -4 0 -8
-4 -8 -10 0 -12 22 -9 32 4 4 6 13 4 22 -4 9 -7 20 -10 23 -6 4 4 1 11 -7 16
-8 6 -10 10 -5 10 6 0 16 -4 23 -9 10 -6 10 -10 -2 -21 -9 -7 -13 -17 -9 -23
3 -5 1 -7 -5 -3 -5 3 -12 0 -15 -6 -2 -7 -8 -10 -12 -6 -4 4 -2 14 4 22 9 11
9 16 0 22 -8 5 -9 3 -4 -6 5 -8 4 -11 -3 -6 -6 3 -14 1 -18 -5 -5 -8 -3 -10 7
-4 8 4 6 -1 -4 -11 -14 -15 -19 -16 -26 -5 -5 8 -11 9 -15 3 -8 -13 -29 -10
-49 6 -10 8 -17 9 -21 3 -4 -6 -13 -8 -21 -4 -8 3 -15 0 -15 -7 0 -9 -6 -8
-19 4 -12 11 -21 14 -26 7 -4 -8 -12 -8 -26 -1 -16 9 -21 7 -27 -11 -8 -21 -9
-21 -31 6 -16 21 -24 26 -33 17 -7 -7 -17 -8 -29 -1 -14 7 -21 4 -33 -13 -12
-17 -16 -18 -16 -6 0 8 -6 21 -14 27 -11 9 -18 6 -34 -14 -11 -14 -23 -25 -28
-25 -4 0 3 11 15 24 13 14 20 29 17 35 -11 16 27 0 42 -18 11 -14 13 -14 26 2
7 9 18 17 25 17 6 0 11 5 11 10 0 6 5 10 11 10 8 0 8 -4 0 -14 -8 -10 -9 -16
-1 -21 5 -3 10 -1 10 5 0 6 4 9 9 5 6 -3 14 3 20 12 8 14 11 15 12 3 1 -8 1
-18 0 -22 -2 -16 65 -2 75 16 11 19 12 19 18 -1 7 -21 36 -40 36 -24 0 5 -4
11 -9 13 -5 2 -2 9 6 17 12 11 14 11 12 0 -3 -29 1 -50 11 -44 5 3 7 11 5 18
-6 16 12 44 22 33 4 -5 2 -11 -4 -13 -17 -6 -17 -24 -1 -20 18 3 37 21 31 30
-2 4 1 7 6 7 14 0 14 -13 -1 -28 -9 -9 -9 -12 0 -12 6 0 19 11 28 25 19 29 21
30 21 10z m578 -6 c-4 -5 -14 -8 -23 -8 -15 1 -15 2 1 6 9 2 14 9 11 15 -4 7
-2 8 5 4 6 -4 9 -12 6 -17z m1574 4 c-8 -9 -8 -13 -1 -13 6 0 9 -7 6 -15 -10
-24 -19 -17 -19 13 -1 17 5 29 12 29 9 0 10 -4 2 -14z m-2374 -11 c-3 -3 -11
0 -18 7 -9 10 -8 11 6 5 10 -3 15 -9 12 -12z m325 8 c0 -5 -2 -10 -4 -10 -3 0
-8 5 -11 10 -3 6 -1 10 4 10 6 0 11 -4 11 -10z m74 -12 c-6 -21 -5 -22 11 -8
14 12 19 12 22 2 3 -6 9 -10 13 -7 5 3 7 13 3 23 -3 11 1 8 12 -6 14 -19 20
-21 31 -11 12 10 18 8 30 -10 9 -12 19 -19 23 -16 12 7 44 -32 36 -44 -3 -6
-11 -11 -17 -11 -7 0 -7 4 0 13 7 8 6 16 -3 24 -11 10 -14 10 -18 0 -3 -9 -8
-9 -20 2 -14 11 -17 11 -17 0 0 -8 -5 -6 -13 5 -12 16 -14 16 -26 2 -15 -18
-31 -21 -31 -6 0 6 8 10 17 10 19 0 9 13 -12 16 -9 1 -12 -2 -9 -8 5 -7 2 -8
-5 -3 -10 6 -11 3 -1 -15 17 -32 9 -32 -28 1 -30 27 -44 47 -23 35 5 -3 11 3
14 14 3 11 8 20 12 20 3 0 3 -10 -1 -22z m86 12 c0 -5 -2 -10 -4 -10 -3 0 -8
5 -11 10 -3 6 -1 10 4 10 6 0 11 -4 11 -10z m220 0 c0 -5 -8 -10 -17 -10 -15
0 -16 2 -3 10 19 12 20 12 20 0z m163 -5 c-3 -9 -8 -14 -10 -11 -3 3 -2 9 2
15 9 16 15 13 8 -4z m297 -14 c0 -4 9 -7 20 -8 11 -1 19 1 19 5 -1 4 -1 14 0
22 1 13 3 12 11 -2 10 -16 50 -14 50 3 0 5 5 9 12 9 9 0 9 -3 0 -12 -7 -7 -12
-17 -12 -22 0 -6 5 -5 12 2 7 7 17 12 23 12 5 0 3 -5 -5 -11 -12 -8 -11 -9 5
-6 11 2 19 8 18 13 -3 15 48 9 58 -7 7 -11 9 -11 9 4 0 9 4 17 10 17 5 0 7 -7
4 -15 -5 -11 -2 -13 10 -9 9 3 13 10 10 15 -3 5 2 6 11 3 9 -4 14 -13 11 -20
-3 -7 -1 -16 5 -19 11 -7 2 -25 -13 -25 -5 0 -8 7 -5 15 10 23 -12 29 -35 8
-24 -22 -21 -21 -41 -4 -13 10 -20 11 -31 2 -10 -9 -16 -9 -21 -1 -5 8 -13 6
-26 -6 -15 -14 -21 -14 -34 -4 -8 7 -13 16 -10 19 2 4 -2 8 -10 8 -18 0 -20
-14 -2 -20 6 -2 8 -8 4 -13 -4 -5 -12 -2 -17 6 -10 17 -30 20 -46 8 -7 -5 -17
-2 -24 7 -7 8 -9 15 -6 15 4 0 2 9 -4 20 -10 18 -9 19 15 8 14 -6 25 -14 25
-17z m20 19 c0 -5 -2 -10 -4 -10 -3 0 -8 5 -11 10 -3 6 -1 10 4 10 6 0 11 -4
11 -10z m511 -10 c6 0 8 4 5 8 -2 4 8 8 24 7 15 0 26 -3 24 -6 -2 -4 3 -10 11
-13 9 -3 18 1 22 10 5 15 7 15 15 0 5 -9 14 -16 20 -16 7 0 6 5 -2 15 -7 9 -8
15 -2 15 5 0 13 -8 17 -17 6 -17 7 -17 21 1 10 14 14 16 14 5 0 -12 2 -12 10
1 5 8 10 11 10 5 0 -5 -5 -17 -10 -25 -7 -11 -10 -11 -10 -2 0 8 -5 10 -12 5
-7 -4 -22 -8 -33 -8 -11 0 -25 -4 -32 -8 -6 -4 -15 -3 -18 3 -4 7 -11 7 -18 2
-7 -5 -20 -8 -29 -7 -10 2 -18 0 -18 -4 0 -4 -6 -15 -13 -26 -13 -17 -14 -17
-19 3 -4 13 -2 20 6 19 11 -2 11 3 3 33 -2 8 -2 12 0 8 3 -5 9 -8 14 -8z m369
9 c0 -5 5 -7 10 -4 16 10 11 -1 -7 -16 -11 -10 -14 -10 -9 -1 4 6 2 12 -3 12
-6 0 -11 5 -11 10 0 6 5 10 10 10 6 0 10 -5 10 -11z m-2795 -17 c0 -18 -20
-15 -23 4 -3 10 1 15 10 12 7 -3 13 -10 13 -16z m595 -2 c0 -5 -4 -10 -10 -10
-5 0 -10 5 -10 10 0 6 5 10 10 10 6 0 10 -4 10 -10z m800 -34 c0 -3 -4 -8 -10
-11 -5 -3 -10 -1 -10 4 0 6 5 11 10 11 6 0 10 -2 10 -4z m200 -6 c0 -5 -4 -10
-10 -10 -5 0 -10 5 -10 10 0 6 5 10 10 10 6 0 10 -4 10 -10z m1122 -32 c-6 -6
-16 -7 -22 -3 -9 6 -9 9 1 16 17 10 34 0 21 -13z"/>
<path d="M1417 693 c-11 -11 -8 -20 7 -20 8 0 12 6 9 14 -6 15 -7 15 -16 6z"/>
<path d="M1253 677 c-3 -7 -3 -9 2 -5 4 4 14 3 21 -3 8 -7 14 -7 19 1 3 5 5
10 3 11 -27 6 -39 5 -45 -4z"/>
<path d="M1336 681 c-3 -5 1 -11 9 -14 9 -4 12 -1 8 9 -6 16 -10 17 -17 5z"/>
<path d="M1856 681 c-9 -15 23 -36 35 -24 8 8 6 11 -7 10 -11 -1 -18 4 -16 11
2 14 -4 16 -12 3z"/>
<path d="M1947 676 c-4 -10 -13 -13 -24 -10 -15 5 -15 4 -3 -4 9 -7 19 -7 25
-2 7 6 17 5 25 -3 11 -10 11 -8 0 8 -8 11 -15 21 -16 23 -1 2 -4 -4 -7 -12z"/>
<path d="M1790 676 c0 -2 7 -7 16 -10 8 -3 12 -2 9 4 -6 10 -25 14 -25 6z"/>
<path d="M2050 655 c11 -13 34 -14 46 -2 4 4 12 2 19 -3 8 -7 12 -6 12 3 0 7
-9 14 -19 14 -10 1 -18 -3 -18 -8 0 -6 -6 -7 -12 -2 -23 14 -40 13 -28 -2z"/>
<path d="M2315 670 c-4 -6 -11 -8 -16 -5 -16 10 -10 -2 9 -16 9 -7 14 -9 10
-5 -4 5 -3 15 3 23 6 7 9 13 6 13 -3 0 -9 -5 -12 -10z"/>
<path d="M2395 671 c-3 -5 -1 -12 5 -16 5 -3 10 -3 10 1 0 3 8 0 18 -7 14 -11
13 -10 -2 9 -22 25 -23 25 -31 13z"/>
<path d="M3044 673 c2 -10 6 -17 10 -16 15 3 16 11 2 22 -12 10 -14 9 -12 -6z"/>
<path d="M3260 683 c0 -7 -6 -10 -13 -7 -8 3 -20 -3 -28 -13 -13 -16 -12 -17
3 -5 10 8 23 10 30 6 20 -13 37 -13 45 -2 3 7 1 8 -5 4 -6 -3 -15 2 -21 11 -6
10 -11 13 -11 6z"/>
<path d="M3150 659 c9 -16 14 -18 26 -8 16 13 19 23 5 14 -5 -3 -12 -1 -16 5
-12 20 -26 10 -15 -11z"/>
<path d="M3611 687 c-8 -10 -7 -14 4 -14 8 0 15 6 15 14 0 7 -2 13 -4 13 -2 0
-9 -6 -15 -13z"/>
<path d="M4637 927 c-3 -8 1 -14 8 -14 7 0 11 6 8 14 -3 7 -6 13 -8 13 -2 0
-5 -6 -8 -13z"/>
<path d="M469 883 c-13 -16 -12 -17 4 -4 9 7 17 15 17 17 0 8 -8 3 -21 -13z"/>
<path d="M4626 882 c-3 -5 1 -9 9 -9 8 0 12 4 9 9 -3 4 -7 8 -9 8 -2 0 -6 -4
-9 -8z"/>
<path d="M4686 862 c-3 -5 1 -9 9 -9 8 0 12 4 9 9 -3 4 -7 8 -9 8 -2 0 -6 -4
-9 -8z"/>
<path d="M455 850 c-4 -6 -12 -7 -18 -4 -7 4 -8 3 -4 -1 13 -15 34 -14 34 1 0
17 -4 18 -12 4z"/>
<path d="M4599 834 c-17 -18 -19 -23 -6 -18 9 3 17 10 17 15 0 5 10 14 23 19
14 5 16 9 6 9 -8 1 -26 -10 -40 -25z"/>
<path d="M376 818 c3 -5 10 -6 15 -3 13 9 11 12 -6 12 -8 0 -12 -4 -9 -9z"/>
<path d="M4734 822 c4 -3 14 -7 22 -8 9 -1 13 0 10 4 -4 3 -14 7 -22 8 -9 1
-13 0 -10 -4z"/>
<path d="M461 815 c0 -5 3 -16 8 -23 7 -11 9 -10 14 3 4 9 3 14 -2 10 -5 -3
-12 1 -14 7 -3 7 -6 9 -6 3z"/>
<path d="M4636 795 c-9 -26 -7 -32 5 -12 6 10 9 21 6 23 -2 3 -7 -2 -11 -11z"/>
<path d="M4690 800 c0 -5 5 -10 11 -10 5 0 7 5 4 10 -3 6 -8 10 -11 10 -2 0
-4 -4 -4 -10z"/>
<path d="M430 781 c0 -6 4 -13 10 -16 6 -3 7 1 4 9 -7 18 -14 21 -14 7z"/>
<path d="M4659 788 c0 -2 -2 -13 -3 -24 -2 -19 0 -20 16 -10 16 9 16 12 3 14
-8 2 -13 8 -10 13 4 5 4 9 1 9 -3 0 -6 -1 -7 -2z"/>
<path d="M4730 780 c0 -5 5 -10 11 -10 5 0 7 5 4 10 -3 6 -8 10 -11 10 -2 0
-4 -4 -4 -10z"/>
<path d="M541 766 c-7 -9 -18 -13 -24 -9 -6 4 -7 1 -3 -6 6 -9 13 -8 27 5 10
9 19 12 19 6 0 -6 -4 -14 -10 -17 -5 -3 -10 -14 -9 -23 0 -11 4 -9 10 8 l10
25 20 -24 c10 -12 16 -27 13 -32 -3 -5 0 -9 5 -9 6 0 12 5 13 10 4 28 2 35
-10 35 -7 0 -21 10 -31 23 -15 21 -19 22 -30 8z"/>
<path d="M4735 751 c-3 -5 -2 -12 3 -15 5 -3 9 1 9 9 0 17 -3 19 -12 6z"/>
<path d="M468 743 c10 -4 10 -9 -3 -23 -12 -14 -13 -20 -4 -26 7 -4 10 -3 5 4
-10 17 13 25 32 11 14 -11 15 -11 5 1 -7 8 -13 18 -13 23 0 4 6 5 13 1 6 -4 9
-3 4 1 -4 5 -18 10 -30 11 -12 2 -16 0 -9 -3z"/>
<path d="M4507 732 c-11 -12 -13 -22 -7 -32 7 -11 10 -11 10 -2 0 10 5 10 23
2 l22 -11 -23 18 c-18 15 -20 21 -10 31 6 6 10 12 7 12 -3 0 -13 -8 -22 -18z"/>
<path d="M4680 740 c-9 -6 -10 -10 -3 -10 6 0 15 5 18 10 8 12 4 12 -15 0z"/>
<path d="M4588 717 c-3 -19 -2 -25 4 -19 6 6 8 18 6 28 -3 14 -5 12 -10 -9z"/>
<path d="M560 720 c0 -5 5 -10 11 -10 5 0 7 5 4 10 -3 6 -8 10 -11 10 -2 0 -4
-4 -4 -10z"/>
<path d="M4610 721 c0 -6 4 -13 10 -16 6 -3 7 1 4 9 -7 18 -14 21 -14 7z"/>
<path d="M634 709 c-3 -5 -2 -9 2 -9 4 0 0 -6 -11 -13 -14 -11 -15 -16 -5 -22
9 -6 11 -4 5 5 -6 10 -3 12 13 8 15 -4 19 -2 15 9 -3 7 -2 13 3 11 5 -2 11 1
14 6 7 12 -28 17 -36 5z"/>
<path d="M4461 683 c-10 -24 -9 -26 2 -11 13 16 15 16 32 0 17 -16 17 -16 0
11 -9 15 -18 27 -20 27 -1 0 -7 -12 -14 -27z"/>
<path d="M916 693 c-10 -11 -7 -24 7 -22 27 3 38 -1 31 -13 -5 -9 -2 -9 9 1
12 10 21 10 30 3 10 -8 16 -5 27 11 12 20 12 21 -4 8 -14 -12 -18 -12 -30 4
-9 13 -15 15 -20 6 -5 -7 -13 -8 -25 -1 -10 5 -21 6 -25 3z"/>
<path d="M4025 689 c-4 -6 -5 -12 -2 -15 2 -3 7 2 10 11 7 17 1 20 -8 4z"/>
<path d="M4168 686 c-19 -14 -23 -26 -10 -26 4 0 13 9 20 20 14 23 13 24 -10
6z"/>
<path d="M506 678 c3 -5 10 -6 15 -3 13 9 11 12 -6 12 -8 0 -12 -4 -9 -9z"/>
<path d="M870 670 c-24 -18 -24 -19 -3 -17 12 0 20 4 17 8 -2 4 2 9 8 12 7 2
11 7 8 10 -3 3 -16 -3 -30 -13z"/>
<path d="M4600 680 c-9 -6 -10 -10 -3 -10 6 0 15 5 18 10 8 12 4 12 -15 0z"/>
<path d="M4635 680 c-3 -5 -1 -10 4 -10 6 0 11 5 11 10 0 6 -2 10 -4 10 -3 0
-8 -4 -11 -10z"/>
<path d="M1556 668 c3 -5 10 -6 15 -3 13 9 11 12 -6 12 -8 0 -12 -4 -9 -9z"/>
<path d="M2546 672 c-2 -4 4 -8 14 -8 10 0 16 4 14 8 -3 4 -9 8 -14 8 -5 0
-11 -4 -14 -8z"/>
<path d="M2640 668 c-13 -8 -12 -9 1 -5 9 3 21 1 27 -5 6 -6 12 -5 17 4 5 7 5
10 0 6 -4 -4 -13 -4 -19 2 -7 5 -17 5 -26 -2z"/>
<path d="M2795 658 c3 -12 9 -24 15 -26 6 -2 7 -9 3 -15 -4 -7 1 -6 10 2 15
12 21 11 44 -10 14 -13 23 -18 18 -10 -6 11 -4 13 9 8 11 -4 15 -3 11 4 -4 6
-13 8 -21 5 -7 -3 -16 -1 -19 3 -9 16 22 20 41 6 16 -11 20 -10 32 6 7 10 18
19 24 19 6 0 4 -8 -5 -18 -10 -10 -17 -25 -16 -33 0 -8 5 -3 10 10 8 20 11 22
27 10 9 -7 14 -10 10 -5 -4 5 0 15 8 23 11 12 12 18 3 29 -9 12 -14 11 -32 -1
-26 -18 -41 -20 -31 -3 4 7 3 8 -4 4 -7 -4 -18 -4 -24 1 -19 11 -37 12 -44 2
-4 -6 -11 -6 -19 1 -10 8 -15 8 -20 0 -5 -8 -11 -8 -20 0 -12 10 -13 7 -10
-12z m120 -5 c11 -6 16 -15 12 -19 -5 -5 -11 -4 -15 1 -9 13 -52 15 -52 2 0
-5 -6 -5 -14 2 -11 9 -15 9 -18 0 -3 -8 -8 -7 -16 3 -10 12 -7 14 19 13 16 -1
32 2 34 6 6 9 24 6 50 -8z m79 8 c3 -5 -1 -14 -8 -20 -12 -10 -14 -9 -11 6 2
10 4 19 4 21 2 5 10 2 15 -7z"/>
<path d="M3988 659 c-15 -16 -15 -18 -1 -23 9 -4 22 -1 30 5 10 9 17 9 25 1 7
-7 17 -12 22 -12 6 0 0 7 -13 16 -17 12 -26 13 -34 5 -17 -17 -31 -13 -17 4
18 22 8 25 -12 4z"/>
<path d="M4390 671 c0 -6 4 -13 10 -16 6 -3 7 1 4 9 -7 18 -14 21 -14 7z"/>
<path d="M4426 663 c-6 -14 -5 -15 5 -6 7 7 10 15 7 18 -3 3 -9 -2 -12 -12z"/>
<path d="M673 655 c0 -8 4 -12 9 -9 4 3 8 9 8 15 0 5 -4 9 -8 9 -5 0 -9 -7 -9
-15z"/>
<path d="M740 666 c0 -2 7 -6 15 -10 8 -3 15 -1 15 4 0 6 -7 10 -15 10 -8 0
-15 -2 -15 -4z"/>
<path d="M3510 656 c7 -7 13 -7 20 0 6 6 3 10 -10 10 -13 0 -16 -4 -10 -10z"/>
<path d="M817 649 c7 -7 15 -10 18 -7 3 3 -2 9 -12 12 -14 6 -15 5 -6 -5z"/>
<path d="M901 644 c0 -11 3 -14 6 -6 3 7 2 16 -1 19 -3 4 -6 -2 -5 -13z"/>
<path d="M932 640 c0 -14 2 -19 5 -12 2 6 2 18 0 25 -3 6 -5 1 -5 -13z"/>
<path d="M730 640 c0 -5 5 -10 10 -10 6 0 10 5 10 10 0 6 -4 10 -10 10 -5 0
-10 -4 -10 -10z"/>
<path d="M1180 640 c0 -5 5 -10 10 -10 6 0 10 5 10 10 0 6 -4 10 -10 10 -5 0
-10 -4 -10 -10z"/>
<path d="M3731 633 c12 -15 12 -16 -3 -10 -10 3 -20 2 -22 -2 -3 -5 3 -8 14
-7 11 0 20 4 20 9 0 4 0 12 0 17 0 6 -5 10 -11 10 -8 0 -7 -6 2 -17z"/>
<path d="M3950 640 c0 -5 9 -14 20 -20 11 -6 20 -9 20 -8 0 2 -9 11 -20 21
-11 9 -20 13 -20 7z"/>
<path d="M4230 642 c0 -5 7 -9 15 -9 8 0 12 4 9 9 -3 4 -9 8 -15 8 -5 0 -9 -4
-9 -8z"/>
<path d="M4310 640 c0 -7 46 -7 54 0 2 3 -9 6 -25 6 -16 1 -29 -2 -29 -6z"/>
<path d="M535 621 c-3 -5 -2 -12 3 -15 5 -3 9 1 9 9 0 17 -3 19 -12 6z"/>
<path d="M573 615 c0 -8 4 -12 9 -9 5 3 6 10 3 15 -9 13 -12 11 -12 -6z"/>
<path d="M650 619 c0 -5 5 -7 10 -4 6 3 10 8 10 11 0 2 -4 4 -10 4 -5 0 -10
-5 -10 -11z"/>
<path d="M831 613 c7 -12 15 -20 18 -17 3 2 -3 12 -13 22 -17 16 -18 16 -5 -5z"/>
<path d="M1071 623 c3 -20 -2 -27 -11 -13 -8 12 -9 10 -7 -7 2 -12 6 -25 10
-28 4 -3 5 -2 2 2 -3 3 2 14 11 24 10 11 12 19 4 24 -6 3 -10 3 -9 -2z"/>
<path d="M1134 622 c3 -5 0 -13 -6 -15 -9 -4 -10 -6 -1 -6 17 -1 25 16 12 25
-7 4 -9 3 -5 -4z"/>
<path d="M1256 617 c4 -11 -2 -14 -26 -12 -16 1 -32 -1 -35 -5 -2 -4 8 -6 23
-5 15 1 32 -2 37 -6 7 -5 11 0 12 11 1 11 -2 22 -8 25 -5 3 -6 0 -3 -8z"/>
<path d="M1295 619 c-4 -6 -5 -12 -2 -15 2 -3 7 2 10 11 7 17 1 20 -8 4z"/>
<path d="M3375 620 c3 -5 11 -10 16 -10 6 0 7 5 4 10 -3 6 -11 10 -16 10 -6 0
-7 -4 -4 -10z"/>
<path d="M3803 602 c-15 -20 -17 -29 -8 -29 8 0 13 3 13 6 -3 15 15 40 25 34
6 -3 7 -1 3 5 -10 16 -9 16 -33 -16z"/>
<path d="M4015 620 c-4 -6 1 -7 11 -3 13 5 15 3 9 -7 -5 -9 -4 -11 4 -6 6 4 9
12 6 17 -8 12 -22 12 -30 -1z"/>
<path d="M4108 623 c6 -2 9 -10 6 -15 -4 -7 -2 -8 5 -4 13 9 5 26 -12 25 -9 0
-8 -2 1 -6z"/>
<path d="M895 609 c-4 -6 -14 -8 -24 -4 -13 5 -14 4 -3 -6 10 -11 15 -10 29 4
10 9 14 17 11 17 -4 0 -10 -5 -13 -11z"/>
<path d="M1617 601 c-4 -17 -3 -21 5 -13 5 5 8 16 6 23 -3 8 -7 3 -11 -10z"/>
<path d="M1772 600 c0 -14 2 -19 5 -12 2 6 2 18 0 25 -3 6 -5 1 -5 -13z"/>
<path d="M1798 613 c7 -3 16 -2 19 1 4 3 -2 6 -13 5 -11 0 -14 -3 -6 -6z"/>
<path d="M1905 607 c-14 -11 -15 -16 -5 -22 9 -5 11 -4 6 3 -4 7 -1 12 8 12 9
0 16 5 16 10 0 13 -3 13 -25 -3z"/>
<path d="M1992 604 c-7 -8 -8 -14 -3 -14 10 0 25 19 20 25 -2 1 -10 -3 -17
-11z"/>
<path d="M2578 613 c6 -2 10 -8 8 -12 -3 -4 4 -7 15 -7 19 0 19 1 3 13 -10 7
-23 13 -28 12 -6 0 -5 -3 2 -6z"/>
<path d="M2697 600 c3 -11 7 -20 9 -20 2 0 4 9 4 20 0 11 -4 20 -9 20 -5 0 -7
-9 -4 -20z"/>
<path d="M2765 605 l-30 -14 27 2 c15 1 30 7 32 14 3 7 4 13 3 12 -1 0 -15 -7
-32 -14z"/>
<path d="M3086 603 c-4 -9 -3 -20 1 -24 4 -4 9 3 9 17 2 28 -1 31 -10 7z"/>
<path d="M3255 610 c-3 -5 -13 -7 -23 -4 -14 5 -14 4 -2 -4 8 -6 19 -7 25 -3
5 5 17 11 25 14 12 4 12 6 -2 6 -9 1 -19 -3 -23 -9z"/>
<path d="M3297 605 c-4 -8 -3 -16 1 -19 4 -3 9 4 9 15 2 23 -3 25 -10 4z"/>
<path d="M4296 607 c3 -10 9 -15 12 -12 3 3 0 11 -7 18 -10 9 -11 8 -5 -6z"/>
<path d="M695 600 c-3 -5 -1 -10 4 -10 6 0 11 5 11 10 0 6 -2 10 -4 10 -3 0
-8 -4 -11 -10z"/>
<path d="M786 598 c3 -5 10 -6 15 -3 13 9 11 12 -6 12 -8 0 -12 -4 -9 -9z"/>
<path d="M919 593 c-13 -16 -12 -17 4 -4 16 13 21 21 13 21 -2 0 -10 -8 -17
-17z"/>
<path d="M1019 608 c-5 -18 -6 -38 -1 -34 7 8 12 36 6 36 -2 0 -4 -1 -5 -2z"/>
<path d="M1376 593 c-6 -14 -5 -15 5 -6 7 7 10 15 7 18 -3 3 -9 -2 -12 -12z"/>
<path d="M1450 598 c0 -6 3 -8 7 -5 3 4 16 -1 27 -10 21 -18 21 -18 2 5 -21
24 -36 29 -36 10z"/>
<path d="M1701 601 c-10 -7 -7 -9 12 -8 15 1 27 5 27 10 0 10 -22 9 -39 -2z"/>
<path d="M1830 606 c0 -2 9 -6 20 -9 11 -3 18 -1 14 4 -5 9 -34 13 -34 5z"/>
<path d="M2095 600 c3 -5 8 -10 11 -10 2 0 4 5 4 10 0 6 -5 10 -11 10 -5 0 -7
-4 -4 -10z"/>
<path d="M2131 593 c0 -11 3 -13 6 -5 2 6 10 9 15 6 7 -4 8 -2 4 4 -11 18 -26
14 -25 -5z"/>
<path d="M2416 595 c4 -8 8 -15 10 -15 2 0 4 7 4 15 0 8 -4 15 -10 15 -5 0 -7
-7 -4 -15z"/>
<path d="M2824 598 c-4 -7 -3 -8 5 -4 6 4 20 2 29 -6 15 -12 16 -11 3 5 -16
20 -27 22 -37 5z"/>
<path d="M3120 600 c-8 -5 -10 -10 -5 -10 6 0 17 5 25 10 8 5 11 10 5 10 -5 0
-17 -5 -25 -10z"/>
<path d="M3321 594 c0 -11 3 -14 6 -6 3 7 2 16 -1 19 -3 4 -6 -2 -5 -13z"/>
<path d="M3350 590 c-8 -15 -8 -18 3 -14 8 3 14 11 14 19 0 20 -4 19 -17 -5z"/>
<path d="M3490 600 c0 -5 5 -10 10 -10 6 0 10 5 10 10 0 6 -4 10 -10 10 -5 0
-10 -4 -10 -10z"/>
<path d="M3553 603 c4 -3 2 -12 -5 -20 -8 -11 -7 -12 6 -7 18 7 22 34 4 34 -6
0 -8 -3 -5 -7z"/>
<path d="M3610 598 c0 -6 3 -8 7 -5 3 4 16 -1 27 -10 21 -18 21 -18 2 5 -21
24 -36 29 -36 10z"/>
<path d="M3758 603 c7 -3 16 -2 19 1 4 3 -2 6 -13 5 -11 0 -14 -3 -6 -6z"/>
<path d="M3920 606 c0 -2 8 -10 18 -17 15 -13 16 -12 3 4 -13 16 -21 21 -21
13z"/>
<path d="M4330 599 c0 -5 5 -7 10 -4 6 3 10 8 10 11 0 2 -4 4 -10 4 -5 0 -10
-5 -10 -11z"/>
<path d="M2068 593 c6 -2 9 -10 6 -15 -4 -7 -2 -8 5 -4 13 9 5 26 -12 25 -9 0
-8 -2 1 -6z"/>
<path d="M2228 593 c6 -2 18 -2 25 0 6 3 1 5 -13 5 -14 0 -19 -2 -12 -5z"/>
<path d="M2557 593 c-11 -11 -8 -20 7 -20 8 0 12 6 9 14 -6 15 -7 15 -16 6z"/>
<path d="M2796 584 c-4 -9 -4 -19 -1 -22 3 -3 5 0 5 7 0 7 4 9 10 6 6 -3 7 1
4 9 -8 20 -10 20 -18 0z"/>
<path d="M3586 583 c-6 -14 -5 -15 5 -6 7 7 10 15 7 18 -3 3 -9 -2 -12 -12z"/>
<path d="M1113 575 c0 -8 4 -12 9 -9 5 3 6 10 3 15 -9 13 -12 11 -12 -6z"/>
<path d="M1798 583 c7 -3 16 -2 19 1 4 3 -2 6 -13 5 -11 0 -14 -3 -6 -6z"/>
<path d="M1830 586 c0 -2 7 -7 16 -10 8 -3 12 -2 9 4 -6 10 -25 14 -25 6z"/>
<path d="M2173 575 c0 -8 4 -12 9 -9 5 3 6 10 3 15 -9 13 -12 11 -12 -6z"/>
<path d="M2333 578 c1 -7 -4 -12 -11 -10 -8 1 -11 -2 -7 -8 5 -8 11 -8 21 1 7
6 11 15 8 20 -8 13 -14 11 -11 -3z"/>
<path d="M2908 583 c7 -3 16 -2 19 1 4 3 -2 6 -13 5 -11 0 -14 -3 -6 -6z"/>
<path d="M3148 583 c7 -3 16 -2 19 1 4 3 -2 6 -13 5 -11 0 -14 -3 -6 -6z"/>
<path d="M3388 583 c7 -3 16 -2 19 1 4 3 -2 6 -13 5 -11 0 -14 -3 -6 -6z"/>
<path d="M3746 578 c3 -5 10 -6 15 -3 13 9 11 12 -6 12 -8 0 -12 -4 -9 -9z"/>
<path d="M4250 579 c0 -5 5 -7 10 -4 6 3 10 8 10 11 0 2 -4 4 -10 4 -5 0 -10
-5 -10 -11z"/>
<path d="M1533 565 c0 -8 4 -12 9 -9 5 3 6 10 3 15 -9 13 -12 11 -12 -6z"/>
<path d="M1873 566 c0 -15 22 -15 34 0 4 5 4 6 -1 2 -5 -4 -14 -3 -21 2 -8 7
-12 5 -12 -4z"/>
<path d="M2089 563 c-13 -16 -12 -17 4 -4 9 7 17 15 17 17 0 8 -8 3 -21 -13z"/>
<path d="M2935 570 c-4 -6 -11 -7 -17 -4 -7 4 -8 2 -4 -5 6 -9 11 -9 22 0 14
11 18 19 10 19 -3 0 -8 -5 -11 -10z"/>
<path d="M3033 566 c0 -15 22 -15 34 0 4 5 4 6 -1 2 -5 -4 -14 -3 -21 2 -8 7
-12 5 -12 -4z"/>
<path d="M3175 571 c-3 -5 -2 -12 3 -15 5 -3 9 1 9 9 0 17 -3 19 -12 6z"/>
<path d="M1656 558 c3 -5 10 -6 15 -3 13 9 11 12 -6 12 -8 0 -12 -4 -9 -9z"/>
<path d="M2119 553 c-13 -16 -12 -17 4 -4 16 13 21 21 13 21 -2 0 -10 -8 -17
-17z"/>
<path d="M2150 561 c0 -6 4 -13 10 -16 6 -3 7 1 4 9 -7 18 -14 21 -14 7z"/>
<path d="M2290 561 c0 -6 4 -13 10 -16 6 -3 7 1 4 9 -7 18 -14 21 -14 7z"/>
<path d="M2426 558 c3 -5 10 -6 15 -3 13 9 11 12 -6 12 -8 0 -12 -4 -9 -9z"/>
<path d="M2501 556 c-9 -11 -9 -16 1 -22 7 -4 10 -4 6 1 -4 4 -3 14 3 22 6 7
9 13 6 13 -2 0 -10 -6 -16 -14z"/>
<path d="M2676 553 c-6 -14 -5 -15 5 -6 7 7 10 15 7 18 -3 3 -9 -2 -12 -12z"/>
<path d="M2704 562 c4 -3 14 -7 22 -8 9 -1 13 0 10 4 -4 3 -14 7 -22 8 -9 1
-13 0 -10 -4z"/>
<path d="M2890 561 c0 -6 4 -13 10 -16 6 -3 7 1 4 9 -7 18 -14 21 -14 7z"/>
<path d="M3270 565 c0 -7 30 -13 34 -7 3 4 -4 9 -15 9 -10 1 -19 0 -19 -2z"/>
<path d="M3727 559 c7 -7 15 -10 18 -7 3 3 -2 9 -12 12 -14 6 -15 5 -6 -5z"/>
<path d="M1935 551 c-3 -5 -2 -12 3 -15 5 -3 9 1 9 9 0 17 -3 19 -12 6z"/>
<path d="M2015 551 c-3 -5 -2 -12 3 -15 5 -3 9 1 9 9 0 17 -3 19 -12 6z"/>
<path d="M2215 551 c-3 -5 -2 -12 3 -15 5 -3 9 1 9 9 0 17 -3 19 -12 6z"/>
<path d="M3509 543 c-13 -16 -12 -17 4 -4 16 13 21 21 13 21 -2 0 -10 -8 -17
-17z"/>
<path d="M1440 540 c-12 -7 -10 -9 7 -7 12 0 19 5 17 9 -6 10 -6 10 -24 -2z"/>
<path d="M1615 540 c-3 -5 -1 -10 4 -10 6 0 11 5 11 10 0 6 -2 10 -4 10 -3 0
-8 -4 -11 -10z"/>
<path d="M1395 520 c-3 -5 -1 -10 4 -10 6 0 11 5 11 10 0 6 -2 10 -4 10 -3 0
-8 -4 -11 -10z"/>
<path d="M2430 519 c0 -5 5 -7 10 -4 6 3 10 8 10 11 0 2 -4 4 -10 4 -5 0 -10
-5 -10 -11z"/>
<path d="M2933 515 c0 -8 4 -12 9 -9 5 3 6 10 3 15 -9 13 -12 11 -12 -6z"/>
<path d="M3380 520 c-9 -6 -10 -10 -3 -10 6 0 15 5 18 10 8 12 4 12 -15 0z"/>
</g>
</svg>
